<svg width="237" height="136" viewBox="0 0 237 136" fill="none" xmlns="http://www.w3.org/2000/svg">
<rect x="0.5" y="0.5" width="236" height="135" fill="#09090B"/>
<rect x="0.5" y="0.5" width="236" height="135" stroke="#1E1E20"/>
<path d="M121.788 64.344C122.58 65.184 122.976 66.272 122.976 67.608C122.976 68.944 122.576 70.036 121.776 70.884C120.984 71.724 119.96 72.144 118.704 72.144C117.448 72.144 116.428 71.724 115.644 70.884C114.86 70.036 114.468 68.944 114.468 67.608C114.468 66.272 114.86 65.184 115.644 64.344C116.436 63.496 117.46 63.072 118.716 63.072C119.972 63.072 120.996 63.496 121.788 64.344ZM121.356 67.608C121.356 66.672 121.116 65.928 120.636 65.376C120.164 64.824 119.524 64.548 118.716 64.548C117.908 64.548 117.264 64.824 116.784 65.376C116.312 65.928 116.076 66.672 116.076 67.608C116.076 68.544 116.312 69.288 116.784 69.84C117.264 70.392 117.908 70.668 118.716 70.668C119.516 70.668 120.156 70.392 120.636 69.84C121.116 69.28 121.356 68.536 121.356 67.608ZM124.19 74.748V66.072H125.546L125.642 66.972C125.818 66.636 126.086 66.372 126.446 66.18C126.814 65.988 127.226 65.892 127.682 65.892C128.514 65.892 129.182 66.172 129.686 66.732C130.198 67.292 130.454 68.036 130.454 68.964C130.454 69.908 130.206 70.676 129.71 71.268C129.222 71.86 128.546 72.156 127.682 72.156C127.234 72.156 126.83 72.072 126.47 71.904C126.11 71.736 125.838 71.504 125.654 71.208V74.748H124.19ZM126.122 67.728C125.818 68.064 125.666 68.5 125.666 69.036C125.666 69.572 125.818 70.008 126.122 70.344C126.426 70.672 126.83 70.836 127.334 70.836C127.846 70.836 128.246 70.672 128.534 70.344C128.83 70.008 128.978 69.572 128.978 69.036C128.978 68.5 128.83 68.064 128.534 67.728C128.238 67.392 127.838 67.224 127.334 67.224C126.83 67.224 126.426 67.392 126.122 67.728ZM135.499 66.072H136.963V72H135.607L135.499 71.208C135.315 71.488 135.047 71.716 134.695 71.892C134.343 72.068 133.971 72.156 133.579 72.156C132.899 72.156 132.367 71.944 131.983 71.52C131.599 71.088 131.407 70.508 131.407 69.78V66.072H132.871V69.264C132.871 70.32 133.291 70.848 134.131 70.848C135.043 70.848 135.499 70.292 135.499 69.18V66.072ZM137.902 70.2H139.294C139.302 70.464 139.398 70.672 139.582 70.824C139.766 70.968 140.026 71.04 140.362 71.04C140.698 71.04 140.958 70.976 141.142 70.848C141.326 70.72 141.418 70.548 141.418 70.332C141.418 70.012 141.19 69.8 140.734 69.696L139.666 69.444C139.122 69.324 138.722 69.132 138.466 68.868C138.21 68.596 138.082 68.224 138.082 67.752C138.082 67.176 138.298 66.724 138.73 66.396C139.17 66.06 139.738 65.892 140.434 65.892C141.098 65.892 141.634 66.068 142.042 66.42C142.458 66.772 142.67 67.236 142.678 67.812H141.286C141.278 67.556 141.194 67.356 141.034 67.212C140.874 67.06 140.654 66.984 140.374 66.984C140.086 66.984 139.862 67.048 139.702 67.176C139.542 67.296 139.462 67.468 139.462 67.692C139.462 68.02 139.718 68.244 140.23 68.364L141.298 68.616C141.81 68.736 142.186 68.92 142.426 69.168C142.674 69.416 142.798 69.764 142.798 70.212C142.798 70.804 142.57 71.276 142.114 71.628C141.658 71.98 141.058 72.156 140.314 72.156C139.578 72.156 138.99 71.976 138.55 71.616C138.118 71.256 137.902 70.784 137.902 70.2Z" fill="white"/>
<path d="M95.25 68H97.5" stroke="white" stroke-width="0.9" stroke-linecap="round" stroke-linejoin="round"/>
<path d="M102 61.25V63.5" stroke="white" stroke-width="0.9" stroke-linecap="round" stroke-linejoin="round"/>
<path d="M98.8501 64.85L97.2001 63.2" stroke="white" stroke-width="0.9" stroke-linecap="round" stroke-linejoin="round"/>
<path d="M105.15 64.85L106.8 63.2" stroke="white" stroke-width="0.9" stroke-linecap="round" stroke-linejoin="round"/>
<path d="M98.8501 71.15L97.2001 72.8" stroke="white" stroke-width="0.9" stroke-linecap="round" stroke-linejoin="round"/>
<path d="M102 68L108.75 70.25L105.75 71.75L104.25 74.75L102 68Z" stroke="white" stroke-width="0.9" stroke-linecap="round" stroke-linejoin="round"/>
</svg>
